<mxfile host="app.diagrams.net" modified="2023-09-08T08:07:55.004Z" agent="Mozilla/5.0 (Windows NT 10.0; Win64; x64) AppleWebKit/537.36 (KHTML, like Gecko) Chrome/116.0.0.0 Safari/537.36" version="21.7.2" etag="yyYw5Rt_fq3-4jsgimEI" type="github">
  <diagram name="第 1 页" id="mya7he5pP-jLLV4pjmfC">
    <mxGraphModel>
      <root>
        <mxCell id="0" />
        <mxCell id="1" parent="0" />
      </root>
    </mxGraphModel>
  </diagram>
</mxfile>
